<svg xmlns="http://www.w3.org/2000/svg" viewBox="0 0 64 64" fill="none">
  <circle cx="32" cy="32" r="28" fill="#F7931A"/>
  <path d="M38.5 24.5c2.5 1 4 3 3.5 5.5-.3 1.8-1.5 3-3.2 3.5 2.8.8 4.3 3 3.5 6-1 3.5-4 4.5-8.3 4l-.8 3.5h-2.5l.8-3.4c-.7 0-1.3 0-2 0l-.8 3.4h-2.5l.8-3.5-5-.1.8-3h1.8c1 0 1.3-.5 1.4-1l1.3-5.4 1-4c0-.8-.3-1.3-1.2-1.3h-1.6l1-3.5 4.7.1.8-3.3h2.5l-.8 3.2c.6-.1 1.3-.1 2-.2l.8-3h2.5l-.8 3.3zm-3.3 14.5c2.2-.5 4.5-1.5 4.8-3.8.3-2.5-1.5-3.3-4-3.5l-1.5 6 .7 1.3zm1-9.5c1.8-.5 3.8-1.2 4-3.3.3-2-1.3-2.8-3.3-3l-1.3 5.3.6 1z" fill="#fff"/>
</svg>
