<svg xmlns="http://www.w3.org/2000/svg" viewBox="0 0 64 64" fill="none">
  <circle cx="32" cy="32" r="28" fill="#26A17B"/>
  <path d="M35.5 33.5v-.1c-.2 0-1.2-.1-3.5-.1s-3.2.1-3.5.1v.1c-6.3.3-11 1.3-11 2.5s4.7 2.2 11 2.5v8h7v-8c6.3-.3 11-1.3 11-2.5s-4.7-2.2-11-2.5zm0 4.3v-.1c-.3 0-1.3.1-3.4.1-1.7 0-2.9-.1-3.6-.1v.1c-5.6-.2-9.8-1.1-9.8-2.1s4.2-1.8 9.8-2.1v3.3c.7.1 1.9.1 3.6.1 2 0 3.1-.1 3.4-.1v-3.3c5.6.2 9.7 1.1 9.7 2.1s-4.1 1.8-9.7 2.1z" fill="#fff"/>
  <rect x="18" y="17" width="28" height="4" rx="1" fill="#fff"/>
  <rect x="28.5" y="17" width="7" height="17" fill="#fff"/>
</svg>
